<svg width="22" height="21" viewBox="0 0 22 21" fill="none" xmlns="http://www.w3.org/2000/svg">
<path fill-rule="evenodd" clip-rule="evenodd" d="M11.001 0.129883C5.10161 0.129883 0.355469 4.87602 0.355469 10.7754C0.355469 15.4772 3.41606 19.4693 7.62992 20.8887C8.1622 20.9774 8.33962 20.6669 8.33962 20.3564C8.33962 20.0903 8.33962 19.4249 8.33962 18.5378C5.36774 19.2031 4.74675 17.1184 4.74675 17.1184C4.25883 15.8764 3.54913 15.5659 3.54913 15.5659C2.57329 14.9006 3.63784 14.9006 3.63784 14.9006C4.7024 14.9893 5.27903 16.0095 5.27903 16.0095C6.21052 17.6507 7.76299 17.1628 8.38398 16.8966C8.47269 16.1869 8.73883 15.7433 9.04933 15.4772C6.69844 15.2111 4.21448 14.2796 4.21448 10.1988C4.21448 9.04552 4.61368 8.06968 5.32339 7.35998C5.23467 7.09384 4.83547 6.02929 5.4121 4.52117C5.4121 4.52117 6.29923 4.25503 8.33962 5.63008C9.1824 5.4083 10.1139 5.27523 11.001 5.27523C11.8881 5.27523 12.8196 5.4083 13.6624 5.63008C15.7028 4.25503 16.5899 4.52117 16.5899 4.52117C17.1665 5.98493 16.8117 7.04948 16.6786 7.35998C17.344 8.11404 17.7875 9.04552 17.7875 10.1988C17.7875 14.2796 15.3036 15.1667 12.9083 15.4328C13.3075 15.7433 13.618 16.4087 13.618 17.3845C13.618 18.8039 13.618 19.9572 13.618 20.3121C13.618 20.5782 13.7955 20.933 14.3721 20.8443C18.586 19.4693 21.6465 15.4772 21.6465 10.7754C21.6465 4.87602 16.9004 0.129883 11.001 0.129883Z" fill="white"/>
</svg>
