<svg width="20" height="16" viewBox="0 0 20 16" fill="none" xmlns="http://www.w3.org/2000/svg">
<path d="M19.2009 2.30204C18.5125 2.60799 17.7859 2.79921 17.021 2.91394C17.7859 2.45502 18.3978 1.72838 18.6655 0.848763C17.9389 1.26945 17.1357 1.5754 16.2561 1.76662C15.5677 1.03998 14.5734 0.581055 13.5025 0.581055C11.4374 0.581055 9.75462 2.26379 9.75462 4.32898C9.75462 4.63493 9.79287 4.90264 9.86935 5.17035C6.77158 5.01737 3.97976 3.52585 2.1058 1.2312C1.79985 1.80487 1.60863 2.41677 1.60863 3.10516C1.60863 4.40546 2.25878 5.55279 3.29137 6.24118C2.67947 6.20294 2.1058 6.04996 1.57039 5.78225V5.82049C1.57039 7.65621 2.87069 9.18598 4.59167 9.53017C4.28572 9.60666 3.94152 9.6449 3.59732 9.6449C3.36786 9.6449 3.10015 9.60666 2.87069 9.56842C3.36786 11.0599 4.74465 12.169 6.38914 12.169C5.08884 13.1634 3.48259 13.7753 1.72336 13.7753C1.41741 13.7753 1.11146 13.7753 0.84375 13.737C2.52649 14.8079 4.47694 15.4198 6.61861 15.4198C13.5408 15.4198 17.327 9.68315 17.327 4.71142C17.327 4.55844 17.327 4.36722 17.327 4.21424C18.0536 3.71707 18.7037 3.06692 19.2009 2.30204Z" fill="white"/>
</svg>
